<svg width="358" height="45" viewBox="0 0 358 45" fill="none" xmlns="http://www.w3.org/2000/svg">
<g clip-path="url(#clip0_1_61)">
<path d="M9.88683 43.4498H0.186035V1.53271H32.0046V9.31302H9.92992L9.88683 43.4498ZM9.16465 20.3879H29.3746V28.1789H9.16465V20.3879Z" fill="#1E1E1E"/>
<path d="M38.5796 43.4498V1.53271H48.2804V43.4498H38.5796Z" fill="#1E1E1E"/>
<path d="M58.3047 43.4498V1.53271H66.3671L91.2119 31.7096H87.2993V1.53271H96.9246V43.4498H88.9269L64.0066 13.2622H67.9193V43.4498H58.3047Z" fill="#1E1E1E"/>
<path d="M127.05 44.1685C123.96 44.1922 120.892 43.6539 117.996 42.5803C115.302 41.5736 112.838 40.037 110.753 38.0623C108.711 36.1073 107.084 33.7646 105.967 31.1727C104.803 28.4268 104.219 25.4714 104.253 22.491C104.218 19.5104 104.802 16.5548 105.967 13.8092C107.082 11.2084 108.722 8.8634 110.785 6.9196C112.873 4.94739 115.335 3.41122 118.029 2.40167C120.933 1.31722 124.014 0.778673 127.115 0.813399C130.508 0.762035 133.876 1.4049 137.01 2.70215C139.901 3.91828 142.451 5.81918 144.436 8.23958L138.185 13.9809C136.851 12.4358 135.211 11.1824 133.367 10.3C131.555 9.47415 129.582 9.05645 127.589 9.07664C125.749 9.06106 123.922 9.38487 122.2 10.0317C120.585 10.6414 119.117 11.5809 117.888 12.7897C116.669 14.0124 115.718 15.4742 115.097 17.0823C114.414 18.8183 114.078 20.6699 114.105 22.5339C114.078 24.3979 114.414 26.2494 115.097 27.9855C115.721 29.5921 116.672 31.0534 117.888 32.278C119.117 33.4835 120.586 34.4193 122.2 35.0253C123.92 35.6809 125.748 36.0086 127.589 35.9911C129.583 36.0129 131.557 35.5913 133.367 34.757C135.224 33.8725 136.868 32.5986 138.185 31.0224L144.436 36.7638C142.446 39.1875 139.899 41.098 137.01 42.3334C133.852 43.621 130.462 44.2457 127.05 44.1685Z" fill="#F0AA04"/>
<path d="M150.99 43.4494V1.53232H169.217C172.543 1.45804 175.848 2.07953 178.918 3.35665C181.494 4.44723 183.691 6.26856 185.234 8.59361C186.759 11.0338 187.531 13.8659 187.454 16.7388C187.527 19.5842 186.754 22.3877 185.234 24.7981C183.687 27.1045 181.489 28.9041 178.918 29.9707C175.845 31.235 172.541 31.8489 169.217 31.7736H156.401L160.713 27.481V43.4065L150.99 43.4494ZM160.691 28.5971L156.38 24.0469H168.646C171.653 24.0469 173.906 23.3923 175.382 22.1045C176.131 21.4309 176.719 20.5999 177.105 19.6719C177.491 18.7438 177.665 17.7419 177.614 16.7388C177.668 15.7353 177.495 14.7325 177.109 13.8039C176.723 12.8754 176.133 12.0448 175.382 11.373C173.906 10.096 171.653 9.45214 168.646 9.45214H156.38L160.691 4.84834V28.5971ZM177.711 43.4494L167.191 28.2322H177.592L188.241 43.4494H177.711Z" fill="#1E1E1E"/>
<path d="M205.056 43.4493V26.2789L207.287 32.149L188.759 1.48926H199.106L213.302 25.0233H207.363L221.623 1.48926H231.184L212.655 32.149L214.811 26.2789V43.4493H205.056Z" fill="#1E1E1E"/>
<path d="M234.826 43.4497V1.53262H253.053C256.379 1.45641 259.684 2.07797 262.754 3.35694C265.33 4.44753 267.526 6.26886 269.07 8.5939C270.603 11.0308 271.38 13.8645 271.301 16.7391C271.374 19.5928 270.598 22.4042 269.07 24.8199C267.524 27.1455 265.329 28.9697 262.754 30.0676C259.684 31.3465 256.379 31.9681 253.053 31.8919H240.248L244.559 27.5242V43.4497H234.826ZM244.527 28.5974L240.216 23.9828H252.482C255.492 23.9828 257.738 23.3461 259.218 22.0726C259.971 21.4028 260.561 20.5722 260.946 19.643C261.33 18.7138 261.499 17.7101 261.439 16.7069C261.495 15.7041 261.325 14.7016 260.94 13.773C260.556 12.8444 259.968 12.0134 259.218 11.3412C257.731 10.0605 255.485 9.42024 252.482 9.42024H240.216L244.527 4.81644V28.5974Z" fill="#1E1E1E"/>
<path d="M285.831 43.4498V9.43105H272.358V1.53271H309.005V9.43105H295.532V43.4498H285.831Z" fill="#1E1E1E"/>
<path d="M334.13 44.1683C330.96 44.1925 327.813 43.6284 324.85 42.5049C322.126 41.4916 319.633 39.9443 317.52 37.9548C315.457 36.011 313.817 33.666 312.702 31.0652C311.545 28.3511 310.961 25.4286 310.988 22.48C310.964 19.5318 311.548 16.6099 312.702 13.8949C313.824 11.2929 315.476 8.95076 317.553 7.01599C319.672 5.03237 322.163 3.48272 324.882 2.45512C327.803 1.3621 330.902 0.816352 334.022 0.845402C337.154 0.80962 340.265 1.35552 343.195 2.45512C345.902 3.48319 348.378 5.03311 350.481 7.01599C352.533 8.95775 354.178 11.2847 355.321 13.8627C356.508 16.595 357.104 19.546 357.067 22.523C357.096 25.4957 356.501 28.4417 355.321 31.1725C354.195 33.7725 352.548 36.1167 350.481 38.0621C348.37 40.0245 345.895 41.559 343.195 42.5801C340.3 43.6682 337.225 44.2069 334.13 44.1683V44.1683ZM334.066 35.9051C335.848 35.9247 337.616 35.5966 339.272 34.9393C340.837 34.3136 342.26 33.3791 343.454 32.192C344.667 30.9645 345.617 29.504 346.245 27.8994C346.928 26.1634 347.265 24.3118 347.237 22.4478C347.265 20.5838 346.928 18.7323 346.245 16.9963C345.622 15.3967 344.684 13.9372 343.486 12.7037C342.3 11.5042 340.876 10.5647 339.304 9.94569C337.635 9.29914 335.857 8.97498 334.066 8.99057C332.288 8.97384 330.524 9.29813 328.87 9.94569C327.304 10.5754 325.881 11.5134 324.688 12.7037C323.469 13.9287 322.515 15.3897 321.886 16.9963C321.208 18.7337 320.872 20.5842 320.894 22.4478C320.884 24.2824 321.221 26.1025 321.886 27.8136C322.512 29.414 323.454 30.8735 324.656 32.1061C325.828 33.3528 327.254 34.3369 328.838 34.9929C330.505 35.6288 332.28 35.9386 334.066 35.9051V35.9051Z" fill="#1E1E1E"/>
</g>
<defs>
<clipPath id="clip0_1_61">
<rect width="356.957" height="43.3551" fill="white" transform="translate(0.142578 0.813477)"/>
</clipPath>
</defs>
</svg>
